<svg width="40" height="40" viewBox="0 0 40 40" fill="none" xmlns="http://www.w3.org/2000/svg">
<path d="M29.75 20.0001C29.7469 22.383 28.8726 24.6826 27.2917 26.4657C25.7109 28.2488 23.5326 29.3922 21.1671 29.6807C21.1145 29.6867 21.0611 29.6814 21.0107 29.6653C20.9602 29.6491 20.9137 29.6224 20.8743 29.587C20.8348 29.5516 20.8034 29.5082 20.782 29.4597C20.7605 29.4112 20.7496 29.3587 20.75 29.3057V22.2501H23C23.1028 22.2503 23.2045 22.2294 23.2989 22.1886C23.3933 22.1479 23.4783 22.0882 23.5487 22.0132C23.619 21.9382 23.6732 21.8495 23.7078 21.7527C23.7424 21.6559 23.7568 21.553 23.75 21.4504C23.7334 21.2576 23.6444 21.0781 23.5009 20.9482C23.3574 20.8183 23.1701 20.7475 22.9765 20.7501H20.75V18.5001C20.75 18.1023 20.908 17.7207 21.1893 17.4394C21.4706 17.1581 21.8521 17.0001 22.25 17.0001H23.75C23.8528 17.0003 23.9545 16.9794 24.0489 16.9386C24.1433 16.8979 24.2283 16.8382 24.2987 16.7632C24.369 16.6882 24.4232 16.5995 24.4578 16.5027C24.4924 16.4059 24.5068 16.303 24.5 16.2004C24.4834 16.0072 24.3941 15.8275 24.2502 15.6975C24.1063 15.5676 23.9185 15.497 23.7246 15.5001H22.25C21.4543 15.5001 20.6912 15.8162 20.1286 16.3788C19.566 16.9414 19.25 17.7044 19.25 18.5001V20.7501H17C16.8971 20.7499 16.7954 20.7708 16.701 20.8115C16.6066 20.8523 16.5216 20.912 16.4513 20.987C16.3809 21.062 16.3268 21.1507 16.2921 21.2475C16.2575 21.3443 16.2431 21.4472 16.25 21.5498C16.2665 21.743 16.3558 21.9227 16.4997 22.0527C16.6436 22.1826 16.8314 22.2532 17.0253 22.2501H19.25V29.3076C19.2503 29.3605 19.2394 29.4129 19.218 29.4613C19.1967 29.5097 19.1653 29.5531 19.126 29.5885C19.0866 29.6239 19.0403 29.6506 18.9899 29.6668C18.9395 29.683 18.8863 29.6884 18.8337 29.6826C16.405 29.3868 14.1758 28.19 12.5874 26.329C10.999 24.4681 10.1672 22.0786 10.2565 19.6335C10.444 14.571 14.5446 10.4554 19.6109 10.2585C20.9225 10.2077 22.231 10.422 23.4579 10.8885C24.6848 11.355 25.8051 12.0642 26.7516 12.9736C27.6981 13.8831 28.4515 14.9741 28.9667 16.1814C29.4819 17.3887 29.7483 18.6875 29.75 20.0001Z" fill="#F7F7F6"/>
</svg>
