<svg width="40" height="40" viewBox="0 0 40 40" fill="none" xmlns="http://www.w3.org/2000/svg">
<path d="M28.25 10.25H11.75C11.3522 10.25 10.9706 10.408 10.6893 10.6893C10.408 10.9706 10.25 11.3522 10.25 11.75V28.25C10.25 28.6478 10.408 29.0294 10.6893 29.3107C10.9706 29.592 11.3522 29.75 11.75 29.75H28.25C28.6478 29.75 29.0294 29.592 29.3107 29.3107C29.592 29.0294 29.75 28.6478 29.75 28.25V11.75C29.75 11.3522 29.592 10.9706 29.3107 10.6893C29.0294 10.408 28.6478 10.25 28.25 10.25ZM17 24.5C17 24.6989 16.921 24.8897 16.7803 25.0303C16.6397 25.171 16.4489 25.25 16.25 25.25C16.0511 25.25 15.8603 25.171 15.7197 25.0303C15.579 24.8897 15.5 24.6989 15.5 24.5V18.5C15.5 18.3011 15.579 18.1103 15.7197 17.9697C15.8603 17.829 16.0511 17.75 16.25 17.75C16.4489 17.75 16.6397 17.829 16.7803 17.9697C16.921 18.1103 17 18.3011 17 18.5V24.5ZM16.25 17C16.0275 17 15.81 16.934 15.625 16.8104C15.44 16.6868 15.2958 16.5111 15.2106 16.3055C15.1255 16.1 15.1032 15.8738 15.1466 15.6555C15.19 15.4373 15.2972 15.2368 15.4545 15.0795C15.6118 14.9222 15.8123 14.815 16.0305 14.7716C16.2488 14.7282 16.475 14.7505 16.6805 14.8356C16.8861 14.9208 17.0618 15.065 17.1854 15.25C17.309 15.435 17.375 15.6525 17.375 15.875C17.375 16.1734 17.2565 16.4595 17.0455 16.6705C16.8345 16.8815 16.5484 17 16.25 17ZM25.25 24.5C25.25 24.6989 25.171 24.8897 25.0303 25.0303C24.8897 25.171 24.6989 25.25 24.5 25.25C24.3011 25.25 24.1103 25.171 23.9697 25.0303C23.829 24.8897 23.75 24.6989 23.75 24.5V21.125C23.75 20.6277 23.5525 20.1508 23.2008 19.7992C22.8492 19.4475 22.3723 19.25 21.875 19.25C21.3777 19.25 20.9008 19.4475 20.5492 19.7992C20.1975 20.1508 20 20.6277 20 21.125V24.5C20 24.6989 19.921 24.8897 19.7803 25.0303C19.6397 25.171 19.4489 25.25 19.25 25.25C19.0511 25.25 18.8603 25.171 18.7197 25.0303C18.579 24.8897 18.5 24.6989 18.5 24.5V18.5C18.5009 18.3163 18.5693 18.1393 18.692 18.0026C18.8148 17.866 18.9834 17.7791 19.166 17.7585C19.3485 17.7379 19.5323 17.7851 19.6824 17.891C19.8325 17.9969 19.9385 18.1542 19.9803 18.3331C20.4877 17.9889 21.0792 17.7895 21.6914 17.7561C22.3036 17.7228 22.9133 17.8568 23.455 18.1438C23.9968 18.4308 24.4501 18.86 24.7664 19.3852C25.0826 19.9105 25.2498 20.5119 25.25 21.125V24.5Z" fill="#F7F7F6"/>
</svg>
